# xmcd CD database file
#
# Track frame offsets:
#	150
#	18702
#	34595
#
# Disc length: 708 seconds
#
# Revision: 0
# Processed by: cddbd v1.5PL3 Copyright (c) Steve Scherf et al.
# Submitted via: CDex 1.40Release
#
DISCID=1c02c203
DTITLE=LINDBERG - BELIEVE IN LOVE
DYEAR=1900
DGENRE=J-POP
TTITLE0=1  　BELIEVE IN LOVE
TTITLE1=2  　HAPPY BIRTHDAY
TTITLE2=1  　BELIEVE IN LOVE (カラオケ)
EXTD=
EXTT0=
EXTT1=
EXTT2=
PLAYORDER=
